Motion_kv04_l
version=1
nRows=16
nColumns=43
inDegrees=yes
endheader
time	pelvis_tilt	pelvis_list	pelvis_rotation	pelvis_tx	pelvis_ty	pelvis_tz	hip_flexion_r	hip_adduction_r	hip_rotation_r	knee_angle_r	ankle_angle_r	subtalar_angle_r	mtp_angle_r	hip_flexion_l	hip_adduction_l	hip_rotation_l	knee_angle_l	ankle_angle_l	subtalar_angle_l	mtp_angle_l	lumbar_extension	lumbar_bending	lumbar_rotation	neck_flexion	neck_lateral_bending	neck_rotation	arm_flex_r	arm_add_r	arm_rot_r	elbow_flex_r	pro_sup_r	wrist_flex_r	wrist_dev_r	hand_finger_flex_r	arm_flex_l	arm_add_l	arm_rot_l	elbow_flex_l	pro_sup_l	wrist_flex_l	wrist_dev_l	hand_finger_flex_l
      0.79750000	      1.24252476	    -21.99693118	     94.73123815	      0.01951333	      1.56399331	      0.94283411	     79.22253364	     -4.49188807	     -3.74434952	    -60.82568511	     -1.33907990	     -7.93017079	      5.35878746	     76.59135811	     -3.26251821	     -1.71408612	    -49.69264887	      2.08946785	    -10.72436872	    -17.00673477	    -69.10091516	     -2.65949287	     -2.31653249	     45.22995431	      2.15867300	      3.03010096	    363.65364054	    -36.19099728	    351.16751803	     86.07414953	    124.50583894	    -19.94493305	    -14.11591978	    -19.09745949	     12.35166359	    -32.78956940	    -10.93966652	     86.16508973	    138.72835595	    -54.84715034	     -0.27351838	     78.76280781
      0.80000000	      1.17638522	    -21.63748246	     94.62573751	      0.01957648	      1.56095646	      0.93875330	     78.55021780	     -4.48359255	     -3.60392647	    -59.98122201	     -2.13364892	     -7.80246520	      5.31616879	     75.95968453	     -3.40378528	     -1.72462335	    -48.99285564	      1.54076731	    -10.69850431	    -17.07795877	    -68.93066722	     -2.81223036	     -2.26694850	     44.58876627	      2.07971574	      2.94581686	    362.43469523	    -36.06305639	    350.55910768	     86.01761565	    124.31364113	    -20.03555909	    -14.29609513	    -18.93886476	     11.12840080	    -32.67642715	    -11.36137889	     86.61917904	    138.48148398	    -54.99442418	     -0.48623250	     79.06289292
      0.80250000	      1.09179920	    -21.28285111	     94.49536547	      0.01973070	      1.55790489	      0.93463083	     77.87069615	     -4.45401045	     -3.45016921	    -59.12903129	     -2.85829100	     -7.79159622	      5.28601670	     75.28676008	     -3.55228536	     -1.75627723	    -48.24460981	      1.05289819	    -10.77603599	    -17.14696214	    -68.76011178	     -2.99678791	     -2.22901814	     43.96353920	      2.03538886	      2.84322220	    361.20725470	    -35.90867826	    349.93712719	     85.97498779	    124.07891862	    -20.05898690	    -14.55779377	    -18.71215402	      9.91967758	    -32.60134367	    -11.76556517	     87.03321918	    138.16360053	    -55.08194507	     -0.77265533	     79.46380578
      0.80500000	      1.05444773	    -21.00665328	     94.41931708	      0.01992068	      1.55449042	      0.93056805	     77.30204840	     -4.44348713	     -3.35142029	    -58.36677576	     -3.37323431	     -7.71927352	      5.25473191	     74.68614098	     -3.68644786	     -1.73669597	    -47.44993687	      0.68216661	    -10.76411737	    -17.20011454	    -68.45881689	     -3.11637068	     -2.21558999	     43.28792897	      2.04054708	      2.76289360	    359.99190823	    -35.71566920	    349.40656991	     85.98277550	    123.91369162	    -20.16763737	    -14.71183316	    -18.61277360	      8.63699076	    -32.56376031	    -12.15606922	     87.35325739	    137.95727610	    -55.20729180	     -0.94267569	     79.71981634
      0.80750000	      0.78860401	    -20.59174715	     94.14267827	      0.02021085	      1.55162477	      0.92627369	     76.52285019	     -4.35787106	     -3.03130697	    -57.45364787	     -4.16724885	     -8.13579641	      5.37339253	     73.85526456	     -3.82265315	     -1.95607825	    -46.66874768	      0.17663036	    -11.21284055	    -17.31234918	    -68.39171827	     -3.48513499	     -2.22179732	     42.76762829	      2.00803252	      2.56865544	    358.70304597	    -35.41714736	    348.49396528	     85.83824375	    123.23646672	    -19.91689229	    -15.55552295	    -17.69655389	      7.58749545	    -32.49139124	    -12.47296796	     87.66038658	    136.85363246	    -55.15155867	     -2.09815333	     81.01239256
      0.81000000	      0.77822935	    -20.33835110	     94.10702528	      0.02018766	      1.54793239	      0.92223957	     75.99631653	     -4.41181278	     -2.97440231	    -56.73352006	     -4.73039254	     -7.86516638	      5.34457658	     73.34239088	     -3.92507116	     -1.90655823	    -46.00877929	     -0.21839623	    -11.06009054	    -17.36887303	    -68.03247589	     -3.57120776	     -2.16307369	     42.03876880	      2.01185280	      2.49197857	    357.48968918	    -35.27495084	    348.02836560	     85.73882161	    123.13488323	    -20.14301962	    -15.58306288	    -17.65632478	      6.27425979	    -32.35217472	    -12.85323121	     88.02295976	    136.69635904	    -55.39431559	     -2.23106256	     81.15318642
      0.81250000	      0.70159114	    -19.96435105	     93.95119455	      0.02035163	      1.54479418	      0.91801684	     75.25406507	     -4.37720183	     -2.86735614	    -55.85203032	     -5.50490292	     -7.75694605	      5.36286007	     72.62014370	     -4.08561174	     -1.94419868	    -45.28391396	     -0.72051969	    -11.26973310	    -17.47015188	    -67.86123684	     -3.77381804	     -2.11238898	     41.43277746	      1.99901739	      2.35395170	    356.34126492	    -35.13076612	    347.52525767	     85.59870530	    122.87922647	    -20.24685022	    -15.90664518	    -17.26213825	      5.08398902	    -32.24745211	    -13.22343065	     88.32209249	    136.11458362	    -55.52351611	     -2.75776701	     81.72895046
      0.81500000	      0.67046466	    -19.76276217	     93.94720203	      0.02043739	      1.54084325	      0.91391820	     74.75834373	     -4.45284953	     -2.81582441	    -55.15906178	     -5.78899757	     -7.64605624	      5.34533655	     72.14303050	     -4.14566504	     -1.89776164	    -44.62813662	     -0.98365126	    -11.18290982	    -17.51021329	    -67.43096410	     -3.85627566	     -2.08651083	     40.71654181	      2.02016311	      2.31747399	    355.11578895	    -34.86242124	    347.01391496	     85.47748750	    122.76128490	    -20.46170481	    -15.90574230	    -17.24994261	      3.76489628	    -32.13916301	    -13.62294556	     88.66770227	    135.97846674	    -55.71831174	     -2.86185061	     81.86152208
      0.81750000	      0.55661053	    -19.36620970	     93.79459118	      0.02042801	      1.53757263	      0.90967511	     74.01493367	     -4.46260379	     -2.68586623	    -54.33255663	     -6.58352045	     -7.57610834	      5.35759148	     71.40091867	     -4.24789025	     -1.95554876	    -43.94647432	     -1.58812954	    -11.50081563	    -17.63295680	    -67.25866558	     -4.06157218	     -2.05353574	     40.01574617	      2.02580851	      2.17358592	    353.97048730	    -34.66133879	    346.44800308	     85.28255768	    122.43101714	    -20.52069574	    -16.29920965	    -16.76525709	      2.56143719	    -31.95729960	    -14.00129251	     88.96739661	    135.21900347	    -55.72681130	     -3.54833123	     82.59185353
      0.82000000	      0.52181059	    -19.16785861	     93.79320182	      0.02045152	      1.53342812	      0.90552973	     73.53060905	     -4.55047133	     -2.64360953	    -53.67919556	     -6.84047138	     -7.45840448	      5.34270499	     70.94439748	     -4.29902091	     -1.91260565	    -43.35398854	     -1.85527442	    -11.40865303	    -17.67291471	    -66.80844086	     -4.13216281	     -2.02271628	     39.30516142	      2.05616025	      2.13968418	    352.74088622	    -34.35380867	    345.92555950	     85.15499815	    122.30554752	    -20.75537497	    -16.28952182	    -16.75193860	      1.22730360	    -31.78764474	    -14.40740659	     89.29013728	    135.06633951	    -55.92518976	     -3.67042313	     82.72271967
      0.82250000	      0.43333114	    -18.81586733	     93.69458452	      0.02041146	      1.52996203	      0.90123579	     72.83142631	     -4.60005627	     -2.55304220	    -52.91330877	     -7.52243022	     -7.34209751	      5.38046339	     70.23021482	     -4.36045069	     -1.93466336	    -42.65391655	     -2.48674448	    -11.81832121	    -17.79562017	    -66.56511803	     -4.29085830	     -1.96095056	     38.56126048	      2.02738819	      2.01517721	    351.59094713	    -34.14131713	    345.38816475	     84.89958322	    121.90758663	    -20.89917138	    -16.66859458	    -16.15448315	      0.04816291	    -31.59076431	    -14.76579234	     89.52498743	    134.09345112	    -55.91528877	     -4.60377019	     83.53977996
      0.82500000	      0.39210212	    -18.62615928	     93.69694870	      0.02033596	      1.52563538	      0.89708397	     72.34032010	     -4.70692717	     -2.51750356	    -52.24799227	     -7.77201275	     -7.20959475	      5.36200956	     69.80906584	     -4.39374250	     -1.89656682	    -42.14134043	     -2.76023284	    -11.69771238	    -17.83168916	    -66.09716642	     -4.34942308	     -1.93418065	     37.84971549	      2.07057232	      1.98223454	    350.34435870	    -33.83512691	    344.87489377	     84.79595046	    121.79508944	    -21.15563173	    -16.64766798	    -16.15132532	     -1.29089794	    -31.39337505	    -15.17845273	     89.82982511	    133.95498239	    -56.12462574	     -4.71341974	     83.63920641
      0.82750000	      0.36272791	    -18.40068147	     93.68084454	      0.02020374	      1.52145648	      0.89287872	     71.80446511	     -4.80008350	     -2.48915474	    -51.58321261	     -8.16199407	     -7.02873823	      5.32792381	     69.32240753	     -4.44413955	     -1.86835929	    -41.60660921	     -3.13936249	    -11.64643478	    -17.88001015	    -65.66529675	     -4.41690559	     -1.87987985	     37.07847908	      2.09036071	      1.92851532	    349.13049631	    -33.56169589	    344.37558897	     84.65384514	    121.67438742	    -21.37482159	    -16.65711601	    -16.11956265	     -2.60656158	    -31.17230237	    -15.56698352	     90.12375549	    133.76455612	    -56.28456140	     -4.85638118	     83.78640431
      0.83000000	      0.29946610	    -18.05477539	     93.62389220	      0.01995477	      1.51775720	      0.88859570	     71.08089242	     -4.89708532	     -2.45634087	    -50.78530875	     -8.82791414	     -6.81573792	      5.30737182	     68.66302283	     -4.46087594	     -1.83785590	    -41.01404807	     -3.88697179	    -12.13748901	    -17.96638634	    -65.37750454	     -4.51101156	     -1.79343968	     36.19840638	      2.03221326	      1.81557282	    347.97907814	    -33.39919582	    343.90965850	     84.40330059	    121.32679444	    -21.53340857	    -16.92003659	    -15.64483224	     -3.76585923	    -30.94801070	    -15.86296127	     90.29947150	    132.88094413	    -56.20827821	     -5.63764004	     84.43268234
      0.83250000	      0.26942976	    -17.86795410	     93.63099062	      0.01984172	      1.51324451	      0.88435120	     70.61241659	     -5.00222240	     -2.43191957	    -50.21479904	     -9.04320410	     -6.70270702	      5.28886022	     68.22424417	     -4.49485905	     -1.81212328	    -40.50811389	     -4.17974603	    -12.05693279	    -17.99515666	    -64.89947216	     -4.56197861	     -1.73909178	     35.50315965	      2.06465948	      1.79038516	    346.73053334	    -33.03741282	    343.35863776	     84.28343916	    121.18536533	    -21.80227728	    -16.90488638	    -15.61831452	     -5.12387427	    -30.70015010	    -16.28213606	     90.62407393	    132.68944379	    -56.40748371	     -5.80023956	     84.55602176
      0.83500000	      0.22973174	    -17.60797900	     93.61919955	      0.01961133	      1.50893425	      0.88006321	     70.03681177	     -5.11624692	     -2.40705615	    -49.58733088	     -9.50351752	     -6.48985995	      5.24908132	     67.73169402	     -4.52341181	     -1.78831599	    -40.06428326	     -4.70880062	    -12.12486939	    -18.03930908	    -64.48254026	     -4.63399482	     -1.64713523	     34.64120560	      2.03536744	      1.73982148	    345.51567070	    -32.77772835	    342.88268726	     84.06408870	    120.99120215	    -22.02094884	    -16.95868468	    -15.45616028	     -6.37600900	    -30.43433619	    -16.63922972	     90.91513668	    132.29275702	    -56.53065418	     -6.13586326	     84.80721642
